# 3ds Max Wavefront OBJ Exporter v0.97b - (c)2007 guruware
# 创建的文件:19.05.2018 14:34:19

mtllib 开关柜.mtl

#
# object Box001
#

v  64.2803 0.0000 -24.7434
v  64.2803 0.0000 35.2566
v  -15.7197 0.0000 35.2566
v  -15.7197 0.0000 -24.7434
v  64.2803 180.0000 -24.7434
v  -15.7197 180.0000 -24.7434
v  -15.7197 180.0000 35.2566
v  64.2803 180.0000 35.2566
v  62.8661 20.4817 33.8424
v  -14.3054 20.4817 33.8424
v  -14.3054 19.3948 33.8424
v  62.8661 19.3948 33.8424
v  62.8661 20.4817 -23.3292
v  62.8661 19.3948 -23.3292
v  -14.3054 20.4817 -23.3292
v  -14.3054 19.3948 -23.3292
v  -15.7197 20.8922 35.2566
v  64.2803 20.8922 35.2566
v  64.2803 18.9842 35.2566
v  -15.7197 18.9842 35.2566
v  64.2803 20.8922 -24.7434
v  64.2803 18.9842 -24.7434
v  -15.7197 20.8922 -24.7434
v  -15.7197 18.9842 -24.7434
# 24 vertices

vn 0.0000 -1.0000 -0.0000
vn 0.0000 1.0000 -0.0000
vn 0.0000 0.0000 1.0000
vn 1.0000 0.0000 -0.0000
vn 0.0000 0.0000 -1.0000
vn -1.0000 0.0000 -0.0000
vn -0.0000 -0.9603 0.2788
vn -0.2788 -0.9603 0.0000
vn 0.0000 -0.9603 -0.2788
vn 0.2788 -0.9603 -0.0000
vn 0.0000 0.9603 0.2788
vn 0.2788 0.9603 -0.0000
vn 0.0000 0.9603 -0.2788
vn -0.2788 0.9603 -0.0000
# 14 vertex normals

vt 0.9446 0.2816 0.0000
vt 0.9446 0.4928 0.0000
vt 0.6630 0.4928 0.0000
vt 0.6630 0.2816 0.0000
vt 0.9328 0.4895 0.0000
vt 0.6511 0.4895 0.0000
vt 0.6511 0.2782 0.0000
vt 0.9328 0.2782 0.0000
vt 0.9950 0.1185 0.0000
vt 0.4986 0.1185 0.0000
vt 0.4986 0.1080 0.0000
vt 0.9950 0.1080 0.0000
vt 0.5037 0.1176 0.0000
vt 1.0011 0.1176 0.0000
vt 1.0011 0.1071 0.0000
vt 0.5037 0.1071 0.0000
vt 0.4894 0.1169 0.0000
vt 0.0034 0.1169 0.0000
vt 0.0034 0.1064 0.0000
vt 0.4894 0.1064 0.0000
vt 0.9998 0.1173 0.0000
vt 0.5024 0.1173 0.0000
vt 0.5024 0.1068 0.0000
vt 0.9998 0.1068 0.0000
vt 0.9950 0.9977 0.0000
vt 0.4986 0.9977 0.0000
vt 0.4986 0.0031 0.0000
vt 0.9950 0.0031 0.0000
vt 0.5037 0.9979 0.0000
vt 1.0011 0.9979 0.0000
vt 1.0011 0.0021 0.0000
vt 0.5037 0.0021 0.0000
vt 0.4894 0.9972 0.0000
vt 0.0034 0.9972 0.0000
vt 0.0034 0.0013 0.0000
vt 0.4894 0.0013 0.0000
vt 0.9998 0.9976 0.0000
vt 0.5024 0.9976 0.0000
vt 0.5024 0.0017 0.0000
vt 0.9998 0.0017 0.0000
# 40 texture coords

o Box001
g Box001
usemtl Material__25
s 2
f 1/1/1 2/2/1 3/3/1 
f 3/3/1 4/4/1 1/1/1 
s 4
f 5/5/2 6/6/2 7/7/2 
f 7/7/2 8/8/2 5/5/2 
s 8
f 9/9/3 10/10/3 11/11/3 
f 11/11/3 12/12/3 9/9/3 
s 16
f 13/13/4 9/14/4 12/15/4 
f 12/15/4 14/16/4 13/13/4 
s 32
f 15/17/5 13/18/5 14/19/5 
f 14/19/5 16/20/5 15/17/5 
s 64
f 10/21/6 15/22/6 16/23/6 
f 16/23/6 11/24/6 10/21/6 
s 8
f 8/25/3 7/26/3 17/10/3 
f 17/10/3 18/9/3 8/25/3 
f 3/27/3 2/28/3 19/12/3 
f 19/12/3 20/11/3 3/27/3 
s 16
f 5/29/4 8/30/4 18/14/4 
f 18/14/4 21/13/4 5/29/4 
f 2/31/4 1/32/4 22/16/4 
f 22/16/4 19/15/4 2/31/4 
s 32
f 6/33/5 5/34/5 21/18/5 
f 21/18/5 23/17/5 6/33/5 
f 1/35/5 4/36/5 24/20/5 
f 24/20/5 22/19/5 1/35/5 
s 64
f 7/37/6 6/38/6 23/22/6 
f 23/22/6 17/21/6 7/37/6 
f 4/39/6 3/40/6 20/24/6 
f 20/24/6 24/23/6 4/39/6 
s off
f 18/9/7 17/10/7 10/10/7 
f 10/10/7 9/9/7 18/9/7 
f 17/21/8 23/22/8 15/22/8 
f 15/22/8 10/21/8 17/21/8 
f 23/17/9 21/18/9 13/18/9 
f 13/18/9 15/17/9 23/17/9 
f 21/13/10 18/14/10 9/14/10 
f 9/14/10 13/13/10 21/13/10 
f 20/11/11 19/12/11 12/12/11 
f 12/12/11 11/11/11 20/11/11 
f 19/15/12 22/16/12 14/16/12 
f 14/16/12 12/15/12 19/15/12 
f 22/19/13 24/20/13 16/20/13 
f 16/20/13 14/19/13 22/19/13 
f 24/23/14 20/24/14 11/24/14 
f 11/24/14 16/23/14 24/23/14 
# 44 faces

#
# object Box002
#

v  7.3923 57.2093 -24.8184
v  7.3923 57.2093 -26.2685
v  42.9123 57.2093 -26.2685
v  42.9123 57.2093 -24.8184
v  7.3923 88.6923 -24.8184
v  42.9123 88.6923 -24.8184
v  42.9123 88.6923 -26.2685
v  7.3923 88.6923 -26.2685
# 8 vertices

vn 0.0000 -1.0000 -0.0000
vn 0.0000 1.0000 -0.0000
vn 1.0000 0.0000 -0.0000
vn 0.0000 0.0000 -1.0000
vn -1.0000 0.0000 -0.0000
# 5 vertex normals

vt 0.1304 0.3178 0.0000
vt 0.1304 0.3147 0.0000
vt 0.3511 0.3147 0.0000
vt 0.3511 0.3178 0.0000
vt 0.1304 0.3113 0.0000
vt 0.3511 0.3113 0.0000
vt 0.3511 0.3143 0.0000
vt 0.1304 0.3143 0.0000
vt 0.3356 0.3179 0.0000
vt 0.3356 0.3210 0.0000
vt 0.1400 0.3210 0.0000
vt 0.1400 0.3179 0.0000
vt 0.1283 0.3109 0.0000
vt 0.3517 0.3109 0.0000
vt 0.3517 0.4895 0.0000
vt 0.1283 0.4895 0.0000
vt 0.3357 0.3184 0.0000
vt 0.3357 0.3215 0.0000
vt 0.1401 0.3215 0.0000
vt 0.1401 0.3184 0.0000
# 20 texture coords

o Box002
g Box002
usemtl Material__25
s 2
f 25/41/15 26/42/15 27/43/15 
f 27/43/15 28/44/15 25/41/15 
s 4
f 29/45/16 30/46/16 31/47/16 
f 31/47/16 32/48/16 29/45/16 
s 16
f 28/49/17 27/50/17 31/51/17 
f 31/51/17 30/52/17 28/49/17 
s 32
f 27/53/18 26/54/18 32/55/18 
f 32/55/18 31/56/18 27/53/18 
s 64
f 26/57/19 25/58/19 29/59/19 
f 29/59/19 32/60/19 26/57/19 
# 10 faces

#
# object Box003
#

v  42.5001 161.5107 -24.1062
v  42.5001 161.5107 -25.5564
v  53.9201 161.5107 -25.5564
v  53.9201 161.5107 -24.1062
v  42.5001 171.2132 -24.1062
v  53.9201 171.2132 -24.1062
v  53.9201 171.2132 -25.5564
v  42.5001 171.2132 -25.5564
# 8 vertices

vn 0.0000 -1.0000 -0.0000
vn 0.0000 1.0000 -0.0000
vn 1.0000 0.0000 -0.0000
vn 0.0000 0.0000 -1.0000
vn -1.0000 0.0000 -0.0000
# 5 vertex normals

vt 0.1304 0.3178 0.0000
vt 0.1304 0.3147 0.0000
vt 0.3511 0.3147 0.0000
vt 0.3511 0.3178 0.0000
vt 0.1304 0.3113 0.0000
vt 0.3511 0.3113 0.0000
vt 0.3511 0.3143 0.0000
vt 0.1304 0.3143 0.0000
vt 0.3356 0.3179 0.0000
vt 0.3356 0.3210 0.0000
vt 0.1400 0.3210 0.0000
vt 0.1400 0.3179 0.0000
vt 0.2640 0.8944 0.0000
vt 0.3381 0.8944 0.0000
vt 0.3381 0.9487 0.0000
vt 0.2640 0.9487 0.0000
vt 0.3357 0.3184 0.0000
vt 0.3357 0.3215 0.0000
vt 0.1401 0.3215 0.0000
vt 0.1401 0.3184 0.0000
# 20 texture coords

o Box003
g Box003
usemtl Material__25
s 2
f 33/61/20 34/62/20 35/63/20 
f 35/63/20 36/64/20 33/61/20 
s 4
f 37/65/21 38/66/21 39/67/21 
f 39/67/21 40/68/21 37/65/21 
s 16
f 36/69/22 35/70/22 39/71/22 
f 39/71/22 38/72/22 36/69/22 
s 32
f 35/73/23 34/74/23 40/75/23 
f 40/75/23 39/76/23 35/73/23 
s 64
f 34/77/24 33/78/24 37/79/24 
f 37/79/24 40/80/24 34/77/24 
# 10 faces

#
# object Box004
#

v  25.9467 161.5107 -24.1062
v  25.9467 161.5107 -25.5564
v  37.3667 161.5107 -25.5564
v  37.3667 161.5107 -24.1062
v  25.9467 171.2132 -24.1062
v  37.3667 171.2132 -24.1062
v  37.3667 171.2132 -25.5564
v  25.9467 171.2132 -25.5564
# 8 vertices

vn 0.0000 -1.0000 -0.0000
vn 0.0000 1.0000 -0.0000
vn 1.0000 0.0000 -0.0000
vn 0.0000 0.0000 -1.0000
vn -1.0000 0.0000 -0.0000
# 5 vertex normals

vt 0.1304 0.3178 0.0000
vt 0.1304 0.3147 0.0000
vt 0.3511 0.3147 0.0000
vt 0.3511 0.3178 0.0000
vt 0.1304 0.3113 0.0000
vt 0.3511 0.3113 0.0000
vt 0.3511 0.3143 0.0000
vt 0.1304 0.3143 0.0000
vt 0.3356 0.3179 0.0000
vt 0.3356 0.3210 0.0000
vt 0.1400 0.3210 0.0000
vt 0.1400 0.3179 0.0000
vt 0.2640 0.8944 0.0000
vt 0.3381 0.8944 0.0000
vt 0.3381 0.9487 0.0000
vt 0.2640 0.9487 0.0000
vt 0.3357 0.3184 0.0000
vt 0.3357 0.3215 0.0000
vt 0.1401 0.3215 0.0000
vt 0.1401 0.3184 0.0000
# 20 texture coords

o Box004
g Box004
usemtl Material__25
s 2
f 41/81/25 42/82/25 43/83/25 
f 43/83/25 44/84/25 41/81/25 
s 4
f 45/85/26 46/86/26 47/87/26 
f 47/87/26 48/88/26 45/85/26 
s 16
f 44/89/27 43/90/27 47/91/27 
f 47/91/27 46/92/27 44/89/27 
s 32
f 43/93/28 42/94/28 48/95/28 
f 48/95/28 47/96/28 43/93/28 
s 64
f 42/97/29 41/98/29 45/99/29 
f 45/99/29 48/100/29 42/97/29 
# 10 faces

#
# object Box005
#

v  9.3933 161.5107 -24.1062
v  9.3933 161.5107 -25.5564
v  20.8133 161.5107 -25.5564
v  20.8133 161.5107 -24.1062
v  9.3933 171.2132 -24.1062
v  20.8133 171.2132 -24.1062
v  20.8133 171.2132 -25.5564
v  9.3933 171.2132 -25.5564
# 8 vertices

vn 0.0000 -1.0000 -0.0000
vn 0.0000 1.0000 -0.0000
vn 1.0000 0.0000 -0.0000
vn 0.0000 0.0000 -1.0000
vn -1.0000 0.0000 -0.0000
# 5 vertex normals

vt 0.1304 0.3178 0.0000
vt 0.1304 0.3147 0.0000
vt 0.3511 0.3147 0.0000
vt 0.3511 0.3178 0.0000
vt 0.1304 0.3113 0.0000
vt 0.3511 0.3113 0.0000
vt 0.3511 0.3143 0.0000
vt 0.1304 0.3143 0.0000
vt 0.3356 0.3179 0.0000
vt 0.3356 0.3210 0.0000
vt 0.1400 0.3210 0.0000
vt 0.1400 0.3179 0.0000
vt 0.2640 0.8944 0.0000
vt 0.3381 0.8944 0.0000
vt 0.3381 0.9487 0.0000
vt 0.2640 0.9487 0.0000
vt 0.3357 0.3184 0.0000
vt 0.3357 0.3215 0.0000
vt 0.1401 0.3215 0.0000
vt 0.1401 0.3184 0.0000
# 20 texture coords

o Box005
g Box005
usemtl Material__25
s 2
f 49/101/30 50/102/30 51/103/30 
f 51/103/30 52/104/30 49/101/30 
s 4
f 53/105/31 54/106/31 55/107/31 
f 55/107/31 56/108/31 53/105/31 
s 16
f 52/109/32 51/110/32 55/111/32 
f 55/111/32 54/112/32 52/109/32 
s 32
f 51/113/33 50/114/33 56/115/33 
f 56/115/33 55/116/33 51/113/33 
s 64
f 50/117/34 49/118/34 53/119/34 
f 53/119/34 56/120/34 50/117/34 
# 10 faces

#
# object Box006
#

v  -7.1601 161.5107 -24.1062
v  -7.1601 161.5107 -25.5564
v  4.2599 161.5107 -25.5564
v  4.2599 161.5107 -24.1062
v  -7.1601 171.2132 -24.1062
v  4.2599 171.2132 -24.1062
v  4.2599 171.2132 -25.5564
v  -7.1601 171.2132 -25.5564
# 8 vertices

vn 0.0000 -1.0000 -0.0000
vn 0.0000 1.0000 -0.0000
vn 1.0000 0.0000 -0.0000
vn 0.0000 0.0000 -1.0000
vn -1.0000 0.0000 -0.0000
# 5 vertex normals

vt 0.1304 0.3178 0.0000
vt 0.1304 0.3147 0.0000
vt 0.3511 0.3147 0.0000
vt 0.3511 0.3178 0.0000
vt 0.1304 0.3113 0.0000
vt 0.3511 0.3113 0.0000
vt 0.3511 0.3143 0.0000
vt 0.1304 0.3143 0.0000
vt 0.3356 0.3179 0.0000
vt 0.3356 0.3210 0.0000
vt 0.1400 0.3210 0.0000
vt 0.1400 0.3179 0.0000
vt 0.2640 0.8944 0.0000
vt 0.3381 0.8944 0.0000
vt 0.3381 0.9487 0.0000
vt 0.2640 0.9487 0.0000
vt 0.3357 0.3184 0.0000
vt 0.3357 0.3215 0.0000
vt 0.1401 0.3215 0.0000
vt 0.1401 0.3184 0.0000
# 20 texture coords

o Box006
g Box006
usemtl Material__25
s 2
f 57/121/35 58/122/35 59/123/35 
f 59/123/35 60/124/35 57/121/35 
s 4
f 61/125/36 62/126/36 63/127/36 
f 63/127/36 64/128/36 61/125/36 
s 16
f 60/129/37 59/130/37 63/131/37 
f 63/131/37 62/132/37 60/129/37 
s 32
f 59/133/38 58/134/38 64/135/38 
f 64/135/38 63/136/38 59/133/38 
s 64
f 58/137/39 57/138/39 61/139/39 
f 61/139/39 64/140/39 58/137/39 
# 10 faces

