# 3ds Max Wavefront OBJ Exporter v0.97b - (c)2007 guruware
# 创建的文件:19.05.2018 15:17:11

mtllib 开关柜2.mtl

#
# object Box007
#

v  85.5543 0.0000 35.2605
v  85.5543 0.0000 -24.7395
v  95.5383 0.0000 -24.7395
v  155.5703 0.0000 -24.7395
v  165.5543 0.0000 -24.7395
v  165.5543 0.0000 35.2605
v  165.5543 180.0000 -24.7395
v  165.5543 180.0000 35.2605
v  85.5543 180.0000 35.2605
v  85.5543 180.0000 -24.7395
# 10 vertices

vn 0.0000 -1.0000 -0.0000
vn 1.0000 0.0000 -0.0000
vn -1.0000 0.0000 -0.0000
# 3 vertex normals

vt 0.5351 0.1290 0.0000
vt 0.9773 0.1290 0.0000
vt 0.9773 0.1683 0.0000
vt 0.9773 0.4045 0.0000
vt 0.9773 0.4438 0.0000
vt 0.5351 0.4438 0.0000
vt 0.5132 0.0055 0.0000
vt 0.9945 0.0055 0.0000
vt 0.9945 0.9945 0.0000
vt 0.5132 0.9945 0.0000
vt 0.5116 0.0061 0.0000
vt 0.9974 0.0061 0.0000
vt 0.9974 0.9926 0.0000
vt 0.5116 0.9926 0.0000
# 14 texture coords

o Box007
g Box007
usemtl Material__27
s 2
f 1/1/1 2/2/1 3/3/1 
f 1/1/1 3/3/1 4/4/1 
f 1/1/1 4/4/1 5/5/1 
f 1/1/1 5/5/1 6/6/1 
s 16
f 6/7/2 5/8/2 7/9/2 
f 7/9/2 8/10/2 6/7/2 
s 64
f 2/11/3 1/12/3 9/13/3 
f 9/13/3 10/14/3 2/11/3 
# 8 faces

#
# object Box008
#

v  166.2985 180.3871 -28.9386
v  166.2985 180.3871 40.3737
v  85.5689 180.3871 40.3737
v  85.5689 180.3871 -28.9386
v  166.2985 185.1783 -28.9386
v  85.5689 185.1783 -28.9386
v  85.5689 185.1783 40.3737
v  166.2985 185.1783 40.3737
# 8 vertices

vn 0.0000 -1.0000 -0.0000
vn 0.0000 1.0000 -0.0000
vn 0.0000 0.0000 1.0000
vn 1.0000 0.0000 -0.0000
vn 0.0000 0.0000 -1.0000
vn -1.0000 0.0000 -0.0000
# 6 vertex normals

vt 0.3077 0.9698 0.0000
vt 0.3077 0.9977 0.0000
vt 0.2764 0.9977 0.0000
vt 0.2764 0.9698 0.0000
vt 0.3077 0.9979 0.0000
vt 0.2763 0.9979 0.0000
vt 0.2763 0.9699 0.0000
vt 0.3077 0.9699 0.0000
vt 0.4864 0.9984 0.0000
vt 0.0055 0.9984 0.0000
vt 0.0055 0.9679 0.0000
vt 0.4864 0.9679 0.0000
vt 0.4537 0.9988 0.0000
vt 0.0329 0.9988 0.0000
vt 0.0329 0.9684 0.0000
vt 0.4537 0.9684 0.0000
vt 0.4855 0.9994 0.0000
vt 0.0046 0.9994 0.0000
vt 0.0046 0.9689 0.0000
vt 0.4855 0.9689 0.0000
vt 0.4537 0.9996 0.0000
vt 0.0330 0.9996 0.0000
vt 0.0330 0.9692 0.0000
vt 0.4537 0.9692 0.0000
# 24 texture coords

o Box008
g Box008
usemtl Material__27
s 2
f 11/15/4 12/16/4 13/17/4 
f 13/17/4 14/18/4 11/15/4 
s 4
f 15/19/5 16/20/5 17/21/5 
f 17/21/5 18/22/5 15/19/5 
s 8
f 18/23/6 17/24/6 13/25/6 
f 13/25/6 12/26/6 18/23/6 
s 16
f 15/27/7 18/28/7 12/29/7 
f 12/29/7 11/30/7 15/27/7 
s 32
f 16/31/8 15/32/8 11/33/8 
f 11/33/8 14/34/8 16/31/8 
s 64
f 17/35/9 16/36/9 14/37/9 
f 14/37/9 13/38/9 17/35/9 
# 12 faces

#
# object 对象003
#

v  99.1565 0.0000 -28.7395
v  99.1565 180.0000 -28.7395
v  151.9521 180.0000 -28.7395
v  151.9521 0.0000 -28.7395
v  85.5543 0.0000 -24.7395
v  85.5543 180.0000 -24.7395
v  95.5383 180.0000 -24.7395
v  95.5383 0.0000 -24.7395
v  165.5543 180.0000 -24.7395
v  165.5543 0.0000 -24.7395
v  155.5703 0.0000 -24.7395
v  155.5703 180.0000 -24.7395
# 12 vertices

vn 0.0000 0.0000 -1.0000
vn -0.7416 0.0000 -0.6708
vn 0.7416 -0.0000 -0.6708
# 3 vertex normals

vt 0.4482 0.0051 0.0000
vt 0.4482 0.9654 0.0000
vt 0.0494 0.9654 0.0000
vt 0.0494 0.0051 0.0000
vt 0.4867 0.0023 0.0000
vt 0.4867 0.9609 0.0000
vt 0.4495 0.9609 0.0000
vt 0.4495 0.0023 0.0000
vt 0.0016 0.9652 0.0000
vt 0.0016 0.0027 0.0000
vt 0.0435 0.0027 0.0000
vt 0.0435 0.9652 0.0000
vt 0.0707 0.0046 0.0000
vt 0.0707 0.9656 0.0000
vt 0.0354 0.9656 0.0000
vt 0.0354 0.0046 0.0000
vt 0.0709 0.9659 0.0000
vt 0.0709 0.0055 0.0000
vt 0.0357 0.0055 0.0000
vt 0.0357 0.9659 0.0000
# 20 texture coords

o 对象003
g 对象003
usemtl Material__27
s 32
f 19/39/10 20/40/10 21/41/10 
f 21/41/10 22/42/10 19/39/10 
f 23/43/10 24/44/10 25/45/10 
f 25/45/10 26/46/10 23/43/10 
f 27/47/10 28/48/10 29/49/10 
f 29/49/10 30/50/10 27/47/10 
s off
f 26/51/11 25/52/11 20/53/11 
f 20/53/11 19/54/11 26/51/11 
f 30/55/12 29/56/12 22/57/12 
f 22/57/12 21/58/12 30/55/12 
# 10 faces

#
# object 对象004
#

v  99.1565 0.0000 39.2605
v  99.1565 180.0000 39.2605
v  151.9521 180.0000 39.2605
v  151.9521 0.0000 39.2605
v  85.5543 0.0000 35.2605
v  85.5543 180.0000 35.2605
v  95.5383 180.0000 35.2605
v  95.5383 0.0000 35.2605
v  165.5543 180.0000 35.2605
v  165.5543 0.0000 35.2605
v  155.5703 0.0000 35.2605
v  155.5703 180.0000 35.2605
# 12 vertices

vn 0.0000 0.0000 1.0000
vn -0.7416 0.0000 0.6708
vn 0.7416 -0.0000 0.6708
# 3 vertex normals

vt 0.4482 0.0051 0.0000
vt 0.4482 0.9654 0.0000
vt 0.0494 0.9654 0.0000
vt 0.0494 0.0051 0.0000
vt 0.4867 0.0023 0.0000
vt 0.4867 0.9609 0.0000
vt 0.4495 0.9609 0.0000
vt 0.4495 0.0023 0.0000
vt 0.0016 0.9652 0.0000
vt 0.0016 0.0027 0.0000
vt 0.0435 0.0027 0.0000
vt 0.0435 0.9652 0.0000
vt 0.0707 0.0046 0.0000
vt 0.0707 0.9656 0.0000
vt 0.0354 0.9656 0.0000
vt 0.0354 0.0046 0.0000
vt 0.0709 0.9659 0.0000
vt 0.0709 0.0055 0.0000
vt 0.0357 0.0055 0.0000
vt 0.0357 0.9659 0.0000
# 20 texture coords

o 对象004
g 对象004
usemtl Material__27
s 32
f 33/61/13 32/60/13 31/59/13 
f 31/59/13 34/62/13 33/61/13 
f 37/65/13 36/64/13 35/63/13 
f 35/63/13 38/66/13 37/65/13 
f 41/69/13 40/68/13 39/67/13 
f 39/67/13 42/70/13 41/69/13 
s off
f 32/73/14 37/72/14 38/71/14 
f 38/71/14 31/74/14 32/73/14 
f 34/77/15 41/76/15 42/75/15 
f 42/75/15 33/78/15 34/77/15 
# 10 faces

